<?xml version="1.0" encoding="UTF-8" standalone="no"?>
<!-- Created with Inkscape (http://www.inkscape.org/) -->

<svg
   width="210mm"
   height="210mm"
   viewBox="0 0 210 210"
   version="1.1"
   id="svg1"
   xml:space="preserve"
   xmlns:inkscape="http://www.inkscape.org/namespaces/inkscape"
   xmlns:sodipodi="http://sodipodi.sourceforge.net/DTD/sodipodi-0.dtd"
   xmlns="http://www.w3.org/2000/svg"
   xmlns:svg="http://www.w3.org/2000/svg"><sodipodi:namedview
     id="namedview1"
     pagecolor="#ffffff"
     bordercolor="#000000"
     borderopacity="0.25"
     inkscape:showpageshadow="2"
     inkscape:pageopacity="0.0"
     inkscape:pagecheckerboard="0"
     inkscape:deskcolor="#d1d1d1"
     inkscape:document-units="mm" /><defs
     id="defs1" /><g
     inkscape:label="Layer 1"
     inkscape:groupmode="layer"
     id="layer1"><path
       style="fill:#abdc93;fill-opacity:1;stroke-width:1.02173"
       d="m 33.940611,209.83448 c 0.141274,-0.12595 1.29108,-0.89461 2.555122,-1.70814 12.404458,-7.9834 21.838232,-21.34743 25.434475,-36.0308 1.057034,-4.31584 1.059017,-4.28865 -0.296674,-4.05971 -0.599153,0.10124 -3.10333,0.20679 -5.564821,0.23466 l -4.475442,0.0506 -0.07348,1.34323 c -0.08737,1.59597 -1.949049,7.91502 -3.295144,11.18454 -3.140496,7.62794 -6.746493,11.45496 -10.324959,10.95779 -1.830731,-0.25434 -4.931879,-1.85278 -7.950932,-4.09819 -5.378148,-3.99999 -13.724821,-12.86907 -17.614082,-18.71653 -1.762456,-2.64983 -2.186687,-3.74375 -1.947051,-5.02064 0.376718,-2.00733 1.250928,-2.14269 6.003347,-0.92957 4.882118,1.24623 9.451688,1.87836 13.602088,1.88163 2.050566,0.002 3.524627,-0.0986 3.379792,-0.22978 -0.141276,-0.12795 -1.595262,-0.73156 -3.231081,-1.34136 -2.400985,-0.89504 -3.573504,-1.16589 -6.083624,-1.40534 -6.105895,-0.58245 -11.123624,-2.18977 -13.060908,-4.18379 -1.1674311,-1.20162 -1.2697714,-2.07958 -0.45232,-3.88041 0.294155,-0.64802 0.534827,-1.2111 0.534827,-1.25128 0,-0.0401 -0.554204,-0.52703 -1.231566,-1.08188 l -1.231568,-1.00879 -1.607018,0.72091 c -1.4324946,0.64263 -1.6878165,0.68232 -2.3510116,0.36544 -0.9675724,-0.4623 -1.3218612,-1.8242 -0.9814521,-3.77275 0.2389282,-1.36763 0.2106987,-1.49507 -0.544076,-2.45604 -0.4378442,-0.55745 -0.8949158,-1.01356 -1.0157151,-1.01356 -0.1207992,0 -0.4565606,0.46423 -0.7461353,1.03164 -0.2895757,0.56741 -0.71790166,1.19043 -0.95183679,1.38452 -0.38404415,0.3186 -0.42533692,-0.0965 -0.42533692,-4.27504 0,-2.54535 0.047131,-4.6279 0.10473571,-4.6279 0.0576057,0 0.81152704,0.8818 1.6753815,1.95954 5.7660823,7.19382 14.1008486,13.81166 23.0436936,18.29682 19.153122,9.60598 39.915455,10.04981 57.644715,1.23225 14.64739,-7.2848 25.619086,-19.90919 30.660496,-35.27893 1.17473,-3.5814 2.30245,-8.24033 2.0449,-8.44803 -0.0692,-0.0558 -2.58968,-0.0475 -5.60107,0.0184 l -5.47527,0.11988 v 0.93697 c 0,2.34154 -2.5269,10.04639 -4.875302,14.86537 -1.749724,3.59049 -3.986239,6.36294 -5.843724,7.24405 -1.445119,0.68549 -3.845162,0.45828 -6.044745,-0.57226 -4.988539,-2.33723 -13.065825,-9.67793 -19.445955,-17.67264 -3.911802,-4.90174 -5.309749,-7.43489 -5.00352,-9.06661 0.387563,-2.06517 1.287549,-2.17024 6.922688,-0.80827 2.129837,0.51476 5.165607,1.1229 6.746162,1.35141 2.95653,0.42745 9.432312,0.57365 9.424106,0.21276 -0.002,-0.11149 -1.377345,-0.72649 -3.055125,-1.36668 -2.360618,-0.90072 -3.63757,-1.21948 -5.646309,-1.40946 -7.996278,-0.75625 -13.086703,-2.56826 -14.412022,-5.13018 -0.554413,-1.07173 -0.511768,-1.61072 0.23914,-3.02245 l 0.644423,-1.21155 -1.222483,-0.990971 c -0.672363,-0.545033 -1.332218,-0.990976 -1.466345,-0.990976 -0.134127,0 -0.720863,0.24326 -1.303859,0.540569 -0.582996,0.297309 -1.486405,0.540569 -2.007584,0.540569 -1.328927,0 -1.598704,-0.633764 -1.452784,-3.412856 l 0.118073,-2.248738 -0.967218,-0.944108 -0.967218,-0.944108 -0.767687,1.409931 c -1.011355,1.857437 -2.453746,2.985545 -3.553578,2.779285 -0.732983,-0.137449 -1.013521,0.04985 -2.84041,1.896358 -1.114905,1.126882 -3.105114,2.920765 -4.422688,3.986395 l -2.395591,1.9375 1.0085,0.28481 c 1.36527,0.38556 1.826374,1.06513 1.675826,2.46981 -0.218528,2.03899 -3.736111,6.27497 -9.77161,11.76726 -8.980676,8.17239 -17.459011,13.14259 -21.356568,12.5197 -3.3702726,-0.53861 -6.7957076,-4.81401 -9.6430141,-12.03574 -1.0174809,-2.58068 -1.2567975,-2.97827 -1.79269806,-2.97827 -0.5578198,0 -0.61828177,-0.12588 -0.61661297,-1.28384 l 0.00183945,-1.28384 4.16031788,-0.0572 C 19.591423,112.89752 33.845369,107.01728 44.964627,96.275787 51.296778,90.158749 55.379506,84.304933 58.795819,76.444645 c 1.760842,-4.051389 4.339435,-12.829177 3.89634,-13.263546 -0.05743,-0.05629 -2.598684,-0.03453 -5.647259,0.04842 l -5.542859,0.15079 -0.02657,1.243654 c -0.03015,1.412182 -1.841962,7.653132 -3.235985,11.14671 -0.512473,1.284322 -1.492618,3.348702 -2.178103,4.587494 -3.869523,6.992978 -7.274169,8.052858 -13.446261,4.185877 C 25.747859,80.241528 14.920844,68.90693 11.210036,62.135469 c -0.835883,-1.525314 -0.983728,-2.024285 -0.864061,-2.916141 0.0794,-0.591779 0.291879,-1.253635 0.472168,-1.470784 0.487048,-0.586641 2.497053,-0.490555 5.561375,0.265856 7.032959,1.736047 13.059606,2.420163 16.424544,1.864435 1.006524,-0.166226 0.925183,-0.214003 -2.526093,-1.483584 -2.105262,-0.774431 -4.026581,-1.313845 -4.690187,-1.316766 -1.952917,-0.0082 -6.440731,-0.75232 -8.959263,-1.484724 -2.9058,-0.845027 -4.764538,-1.810557 -5.837793,-3.032473 -0.9577266,-1.090385 -1.0111189,-2.040991 -0.207504,-3.694456 l 0.585034,-1.203694 -0.902157,-0.763059 C 8.5596184,45.456722 8.6587407,45.480165 7.177557,46.169619 5.7618372,46.828601 4.9597374,46.953207 4.4046594,46.600388 3.7492809,46.183817 3.4671275,44.806675 3.6541523,42.937289 3.8367574,41.112078 3.8280098,41.077552 2.9547904,40.176953 L 2.0705107,39.264947 1.0998583,40.809011 0.12920585,42.353077 0.05128435,39.83929 c -0.04285937,-1.382582 -0.04285937,-3.552799 0,-4.822705 l 0.0779215,-2.308918 1.67324475,2.119878 c 0.920285,1.165932 3.0495528,3.484684 4.7317079,5.152781 10.4886595,10.401003 23.7045955,17.213256 38.4786745,19.834131 4.046665,0.717868 13.10244,1.00252 17.075853,0.536758 C 69.451455,59.488146 76.02343,57.55247 82.428362,54.360465 89.151469,51.009885 93.800771,47.624586 98.972726,42.314 109.39424,31.613156 115.28761,18.207117 116.15441,3.2296592 l 0.1838,-3.17582221 h 15.91293 15.91294 V 1.2323927 c 0,1.3074231 -0.4443,2.0893125 -2.90069,5.1047589 -2.91327,3.5762925 -10.2724,10.2068534 -15.43984,13.9112534 -3.04976,2.186293 -6.91146,4.320271 -9.03506,4.992784 -2.01571,0.638345 -4.48262,0.546159 -5.79651,-0.216606 -0.47371,-0.275007 -0.89968,-0.441484 -0.94662,-0.369948 -0.0469,0.07154 -0.73135,1.453845 -1.52094,3.071796 -0.7896,1.61795 -2.16317,4.145702 -3.05238,5.617229 l -1.61675,2.675501 1.01458,1.237696 c 1.78117,2.172878 6.3331,6.291061 9.95761,9.008765 9.95451,7.464004 20.83898,12.025493 32.94233,13.805548 4.45655,0.655431 12.73547,0.710543 16.94319,0.112799 15.82151,-2.247625 29.71952,-10.194059 39.57425,-22.627322 l 1.65942,-2.093602 0.0759,3.407323 c 0.0537,2.411315 -0.0221,3.52533 -0.25928,3.811026 -0.49978,0.601975 -1.54674,0.930126 -2.05695,0.644707 -0.34499,-0.192992 -1.00263,0.288621 -3.04542,2.230254 -1.43297,1.362019 -3.53322,3.20532 -4.6672,4.096224 l -2.06179,1.619826 0.95604,0.163147 c 1.37349,0.234385 1.81997,0.798737 1.79768,2.272289 -0.0217,1.433792 -0.55817,2.361805 -3.01493,5.215209 -7.43172,8.631565 -19.05221,17.434131 -25.0589,18.982235 -2.30491,0.594046 -3.73169,0.465946 -5.14887,-0.462278 -0.36262,-0.237508 -0.7128,-0.378348 -0.77819,-0.31299 -0.0654,0.06538 -0.83931,1.571774 -1.71981,3.347579 -0.88052,1.775796 -2.28366,4.306683 -3.1181,5.624175 l -1.51716,2.395441 1.60121,1.793938 c 9.01462,10.09957 23.44257,18.39608 37.15673,21.36625 3.25437,0.70483 7.97546,1.3746 9.68938,1.3746 h 1.30485 v 1.35141 c 0,1.19439 -0.0662,1.3514 -0.57008,1.3514 -0.47287,0 -0.54119,0.11507 -0.40064,0.67484 0.37148,1.47957 -2.18147,9.66715 -4.55119,14.59614 -3.59111,7.46947 -6.84584,9.59082 -11.64164,7.58776 -5.35026,-2.23465 -16.06181,-12.29788 -22.17367,-20.8316 -2.76045,-3.85429 -3.43915,-5.92055 -2.42167,-7.37264 0.58129,-0.8296 1.94277,-0.78675 5.79791,0.18251 1.71018,0.42998 4.2653,0.98776 5.67805,1.2395 2.76556,0.4928 10.19271,0.87323 10.99934,0.56338 0.35656,-0.13696 -0.2894,-0.49045 -2.34708,-1.2844 -2.83849,-1.09521 -3.56904,-1.25637 -8.38188,-1.84902 -9.59637,-1.1817 -14.1719,-4.28686 -11.85019,-8.04207 l 0.58744,-0.95015 -1.1958,-1.033239 c -0.6577,-0.568282 -1.32504,-1.036874 -1.483,-1.041307 -0.15796,-0.0041 -0.80547,0.242248 -1.43892,0.548179 -0.63412,0.306258 -1.53515,0.518831 -2.00489,0.472994 -1.25342,-0.122299 -1.6035,-0.973192 -1.42428,-3.461787 0.14336,-1.990779 0.12996,-2.046034 -0.74747,-3.082255 l -0.89344,-1.055149 -0.83901,1.486086 c -1.13656,2.013131 -2.35317,3.019369 -3.39804,2.810474 -0.71522,-0.142995 -1.04569,0.07948 -3.27701,2.205885 -1.36487,1.300696 -3.41438,3.094679 -4.55449,3.986599 l -2.07291,1.6217 1.08319,0.27028 c 1.32776,0.3313 1.59414,0.7224 1.59944,2.34834 0.004,1.13364 -0.16539,1.48976 -1.60425,3.37854 -6.39611,8.39607 -20.58192,19.44397 -26.80921,20.87896 -1.81388,0.41798 -2.68347,0.34168 -4.21172,-0.36961 l -1.40006,-0.65162 -1.6592,3.33161 c -0.91257,1.83239 -2.32055,4.38456 -3.12887,5.6715 -0.80831,1.28693 -1.46966,2.42513 -1.46966,2.52934 0,0.33544 7.09772,7.20571 9.19303,8.89845 4.55732,3.68172 10.83874,7.47718 16.28293,9.83873 22.81864,9.89814 46.73623,7.13446 65.32399,-7.54822 2.62841,-2.0762 8.39794,-7.97566 10.05303,-10.27942 l 1.21673,-1.69358 0.0756,3.54146 c 0.0725,3.39783 0.0506,3.56291 -0.54077,4.06978 -0.4483,0.38426 -0.87455,0.49199 -1.56342,0.39512 -0.88458,-0.12439 -1.08083,0.002 -2.97422,1.90854 -1.11491,1.12295 -3.08666,2.90303 -4.38164,3.95576 -2.33459,1.89784 -2.62516,2.36245 -1.4825,2.37045 0.90007,0.006 1.28633,0.3636 1.52195,1.40793 0.46959,2.08137 -0.90183,4.10662 -6.73834,9.95091 -7.17055,7.18011 -15.1982,12.9848 -20.33086,14.701 -2.59627,0.86811 -3.96541,0.87962 -5.6232,0.0473 l -1.28809,-0.64673 -1.37761,2.87656 c -1.22693,2.56196 -3.05301,5.79995 -4.48282,7.94892 l -0.49756,0.74784 2.80551,2.86209 c 4.77347,4.86971 9.45434,8.57156 15.03357,11.88919 l 2.90401,1.72685 h -6.40738 c -6.05809,0 -6.42266,-0.0285 -6.68729,-0.52281 -0.45109,-0.84254 -0.32421,-2.16277 0.31754,-3.30417 l 0.59744,-1.06261 -0.80023,-0.67181 c -1.85813,-1.55997 -1.80893,-1.54809 -3.30404,-0.79743 -1.73513,0.87119 -2.31845,0.85964 -3.05021,-0.0603 -0.53503,-0.6727 -0.57562,-0.95017 -0.42752,-2.92235 l 0.16365,-2.17905 -0.89243,-0.86467 -0.89242,-0.86465 -1.08646,1.70352 c -1.21008,1.89738 -2.5324,2.79038 -3.42487,2.31293 -0.43723,-0.23392 -0.89791,0.10072 -3.12207,2.26796 -1.43503,1.3983 -3.51147,3.26352 -4.6143,4.14492 l -2.00514,1.60255 1.00496,0.16328 c 0.99382,0.16149 1.75453,0.63836 1.47078,0.92201 -0.0806,0.0806 -2.14094,0.11302 -4.5785,0.072 l -4.43191,-0.0744 2.40318,-1.57237 c 6.68028,-4.37087 12.71319,-10.35851 17.35567,-17.22549 2.36905,-3.50418 5.37633,-9.52288 6.74582,-13.5009 0.91153,-2.64775 2.68231,-9.43416 2.50548,-9.60208 -0.0435,-0.0413 -1.60003,0.0389 -3.45892,0.17828 -1.85888,0.13939 -4.36656,0.17878 -5.57262,0.0875 l -2.19281,-0.16587 -0.14403,1.84551 c -0.33906,4.34445 -4.68296,15.23571 -7.41631,18.59458 -3.26844,4.0164 -6.21328,4.24249 -11.57738,0.88886 -6.33948,-3.96345 -16.34913,-14.35929 -20.87436,-21.67973 -1.36413,-2.20675 -1.5916,-4.04252 -0.6211,-5.01266 0.74796,-0.74768 1.64609,-0.68864 6.05808,0.39825 2.096,0.51634 5.10408,1.12447 6.68463,1.35141 2.82782,0.40602 10.22905,0.58198 9.88188,0.23495 -0.0978,-0.0977 -1.42599,-0.6617 -2.95167,-1.25331 -2.28716,-0.88688 -3.47176,-1.16011 -6.75023,-1.55694 -6.66592,-0.80683 -11.24159,-2.30192 -12.93078,-4.22508 -1.17469,-1.3374 -1.25773,-2.03977 -0.42976,-3.63506 0.38953,-0.7505 0.70823,-1.38916 0.70823,-1.41922 0,-0.03 -0.60505,-0.5159 -1.34458,-1.07965 l -1.34456,-1.02501 -1.49564,0.73148 c -1.33097,0.65094 -1.58521,0.69439 -2.30905,0.39468 -1.00892,-0.41776 -1.19473,-1.09414 -1.00165,-3.64606 0.14826,-1.95961 0.14544,-1.97006 -0.77032,-2.85733 -0.50553,-0.48979 -0.96014,-0.83802 -1.01025,-0.77386 -0.0501,0.0641 -0.41458,0.68159 -0.80991,1.37202 -1.02013,1.7817 -2.2354,2.74216 -3.27638,2.58943 -0.73866,-0.10837 -1.11717,0.15219 -3.533858,2.43255 -1.488633,1.40464 -3.531996,3.18186 -4.540806,3.94936 l -1.834216,1.39547 0.917277,0.27028 c 1.424129,0.41963 1.804805,0.87385 1.804805,2.15345 0,1.44319 -1.270187,3.46808 -4.077456,6.50015 -9.041621,9.76566 -20.211271,17.67324 -25.661749,18.16728 -1.18315,0.10724 -1.816761,0.005 -2.927733,-0.47283 -0.779797,-0.33533 -1.459334,-0.56272 -1.510072,-0.50531 -0.05079,0.0574 -0.718922,1.3972 -1.484842,2.97728 -0.765919,1.58009 -2.119924,4.03242 -3.008914,5.44962 -0.888989,1.41721 -1.616352,2.6862 -1.616352,2.81996 0,0.43916 3.674164,4.24042 6.462957,6.68652 3.562212,3.12449 7.007446,5.64794 10.773982,7.89137 1.672997,0.99647 3.04181,1.85044 3.04181,1.89769 0,0.0473 -2.839766,0.0859 -6.310609,0.0859 h -6.310598 l -0.313792,-0.68843 c -0.450973,-0.9894 -0.394461,-1.4932 0.327404,-2.91852 l 0.641173,-1.26602 -1.288213,-1.07815 -1.288213,-1.07814 -1.448441,0.67402 c -2.858211,1.33006 -3.562887,0.77521 -3.442372,-2.71045 0.08022,-2.31858 0.0698,-2.36167 -0.800359,-3.33113 -0.517838,-0.57693 -0.937684,-0.85376 -1.017567,-0.67095 -0.0748,0.17118 -0.586123,0.95504 -1.136285,1.74193 -1.171438,1.6755 -2.498485,2.57842 -3.207024,2.18205 -0.383332,-0.21444 -0.957049,0.19745 -3.132464,2.24885 -1.46476,1.38127 -3.504257,3.16321 -4.532222,3.95988 -1.027966,0.79668 -1.873803,1.53973 -1.879639,1.65122 -0.0058,0.1115 0.301572,0.20271 0.683126,0.20271 0.803315,0 1.739716,0.44156 1.739716,0.82035 0,0.1574 -1.843514,0.26078 -4.650593,0.26078 -2.563254,0 -4.535305,-0.10278 -4.393729,-0.22899 z m 82.668659,-97.22959 c 10.7793,-1.57912 20.77737,-5.89493 29.47363,-12.722727 4.67432,-3.670009 10.05878,-9.767024 13.56415,-15.359184 3.64966,-5.822333 6.83892,-13.968865 8.08618,-20.655027 l 0.17135,-0.91857 -2.23193,0.173672 c -1.22758,0.09552 -3.77313,0.174418 -5.6568,0.175307 l -3.42485,0.002 -0.007,1.148703 c -0.0141,2.298725 -2.70172,10.41687 -4.91945,14.859601 -1.8149,3.635726 -3.78438,5.989733 -5.94633,7.107299 -2.18353,1.128731 -6.19149,-0.264099 -10.8224,-3.760956 -4.58341,-3.46099 -12.06073,-11.148514 -15.89547,-16.342313 -2.72595,-3.692046 -3.55263,-5.272391 -3.55263,-6.791463 0,-2.54667 0.7427,-2.701577 6.4892,-1.353521 6.52045,1.529614 12.56022,2.215987 15.55258,1.767418 l 1.32374,-0.198434 -3.4763,-1.326419 c -2.31403,-0.882939 -3.89224,-1.328034 -4.72038,-1.331262 -1.64177,-0.0061 -5.90605,-0.658798 -8.27406,-1.265859 -2.39427,-0.613799 -6.02168,-2.430763 -6.69884,-3.355435 -0.69717,-0.951994 -0.69338,-2.34073 0.0102,-3.689807 l 0.58084,-1.113952 -1.29365,-1.0827 -1.29364,-1.082699 -1.30866,0.662282 c -2.82823,1.431297 -3.81847,0.634101 -3.57751,-2.880082 0.14545,-2.121219 0.13044,-2.191034 -0.66605,-3.097839 -0.44816,-0.510241 -0.90438,-0.927712 -1.01382,-0.927712 -0.10943,0 -0.3484,0.334475 -0.53105,0.743278 -1.05049,2.351289 -3.05815,4.047257 -3.93244,3.321929 -0.37836,-0.313891 -0.7527,-0.04599 -2.92736,2.094988 -1.371439,1.350195 -3.45674,3.219378 -4.634004,4.153736 l -2.140485,1.698835 1.058945,0.215996 c 1.319045,0.269048 1.734905,0.806138 1.734905,2.240632 0,0.905483 -0.253416,1.482771 -1.312106,2.989013 -3.427094,4.875916 -12.483165,13.10293 -19.237022,17.475952 -5.890405,3.813943 -9.699136,4.874946 -12.426245,3.461583 -0.808698,-0.419118 -1.239591,-0.521966 -1.309418,-0.31255 -0.365726,1.096756 -3.057987,6.255466 -4.401272,8.433371 -0.880579,1.427695 -1.601054,2.708472 -1.601054,2.846155 0,0.344985 6.554459,6.818366 8.381889,8.278209 11.870228,9.482542 25.26083,14.979362 39.332307,16.145832 3.44144,0.28528 10.03786,0.0762 13.47251,-0.42689 z m -4.77544,-10.41308 c -4.58584,-1.10811 -7.32566,-3.029344 -8.90679,-6.245675 -1.30427,-2.653156 -1.64337,-4.854812 -1.46554,-9.515162 0.1539,-4.032809 0.78671,-7.697076 2.51368,-14.555016 1.88241,-7.475292 3.62953,-11.035577 5.72757,-11.671609 0.83127,-0.252003 2.90909,1.747081 7.43147,7.149871 6.88175,8.221484 13.04724,16.856496 15.37808,21.537646 1.03529,2.079224 1.18624,2.60593 1.18624,4.139211 0,4.276191 -3.12444,7.224124 -9.32823,8.801264 -4.10381,1.04326 -9.11227,1.18688 -12.53648,0.35947 z M 85.392619,96.296943 c -3.299783,-1.054946 -8.317202,-4.244881 -11.933996,-7.587291 -3.794342,-3.5065 -4.148397,-6.587936 -1.092413,-9.507602 0.570263,-0.544829 2.800463,-2.109339 4.956001,-3.476682 5.002713,-3.173426 5.650734,-3.732935 14.737299,-12.724265 6.661864,-6.59205 7.715066,-7.529682 8.77301,-7.81036 1.59727,-0.423762 2.84355,0.128149 3.42373,1.516177 0.37697,0.901897 0.34848,1.25435 -0.40939,5.065045 -0.44801,2.25264 -1.25108,6.406617 -1.78461,9.231076 -3.072663,16.266392 -5.914718,23.343882 -10.178796,25.348012 -1.313332,0.617256 -4.473246,0.590921 -6.490835,-0.05414 z M 7.4884928,207.36479 C 4.8553553,206.78033 3.208236,206.12272 1.2807761,204.88632 l -1.28679192,-0.82542 v -15.64205 -15.64204 l 0.64200261,-1.70502 c 1.46122061,-3.88066 2.93948891,-5.87525 4.35438171,-5.87525 0.8701078,0 4.5961414,3.98205 9.7368805,10.40589 6.489926,8.10978 10.688084,14.15694 12.745892,18.3596 1.026685,2.09681 1.181475,2.64335 1.181475,4.17162 0,3.26045 -1.74927,5.59257 -5.508268,7.34358 -4.364965,2.0333 -11.257685,2.86422 -15.6578552,1.88756 z M 112.17755,207.26386 c -6.08295,-1.40314 -9.15948,-4.23094 -10.4186,-9.57629 -0.672,-2.85285 -0.38079,-8.82152 0.68851,-14.11175 2.46102,-12.17566 5.00791,-18.37923 7.54564,-18.37923 0.86074,0 2.90527,2.06221 7.38782,7.45169 7.84178,9.42838 14.35102,18.84649 15.9167,23.02961 2.27048,6.06611 -3.19522,10.8806 -13.55926,11.94376 -3.68797,0.37832 -4.54547,0.33775 -7.56081,-0.35779 z m 96.99302,-4.29526 c -0.96671,-1.27047 -1.94256,-3.35847 -2.3685,-5.06779 -0.57423,-2.3045 -0.43662,-8.3833 0.27841,-12.29788 0.64626,-3.53816 2.25735,-10.40845 2.6937,-11.48701 0.1893,-0.4679 0.27864,4.00007 0.29051,14.5277 0.009,8.36187 -0.0375,15.2034 -0.1043,15.2034 -0.0667,0 -0.4222,-0.39528 -0.78982,-0.87842 z M 86.111071,201.53723 c -4.836375,-1.32158 -13.818592,-7.77284 -15.267861,-10.96578 -1.572103,-3.46356 -0.113269,-5.76863 6.052451,-9.56336 4.703597,-2.89488 7.171332,-4.99369 14.87813,-12.65389 4.169991,-4.14479 7.911326,-7.70631 8.314069,-7.9145 1.61087,-0.83271 3.45096,-0.30298 4.16382,1.1987 0.44613,0.9398 0.4276,1.11021 -0.81107,7.4629 -3.39616,17.41753 -4.495139,21.76701 -6.638701,26.2745 -2.68663,5.64943 -5.863712,7.48048 -10.690838,6.16143 z m 104.324179,-0.23346 c -4.20635,-1.36206 -11.85099,-6.6772 -13.83549,-9.61952 -2.61735,-3.88062 -1.31936,-6.5677 5.09183,-10.54102 5.01947,-3.11081 7.02116,-4.8086 15.00627,-12.72802 4.31261,-4.27714 8.18363,-7.90652 8.60226,-8.06532 2.02775,-0.76914 3.85226,0.0695 4.14443,1.90524 0.0975,0.61245 -0.21487,2.88424 -0.83615,6.08136 -0.54547,2.80703 -1.35485,6.9889 -1.79863,9.29307 -1.68521,8.74982 -3.31565,14.52084 -5.11936,18.12029 -2.85593,5.69926 -6.00594,7.25364 -11.25516,5.55392 z M 62.317342,155.24826 c -1.622392,-0.16597 -5.225921,-1.11954 -6.709965,-1.77561 -1.757848,-0.7771 -3.934458,-2.70492 -4.876444,-4.31904 -2.249903,-3.85524 -2.51595,-9.66095 -0.825416,-18.01268 2.510543,-12.40285 4.991553,-18.37921 7.629878,-18.37921 0.86106,0 2.804203,1.94135 7.188909,7.18236 8.162851,9.75697 15.494522,20.59916 16.405667,24.26096 0.917175,3.68605 -1.823986,7.54289 -6.641517,9.34469 -3.037936,1.13622 -9.226027,1.99979 -12.171112,1.69853 z m 104.908728,0.0102 c -1.64102,-0.19589 -5.14494,-1.16888 -6.58852,-1.82953 -2.98731,-1.36712 -4.81042,-3.45056 -6.02171,-6.88152 -0.55506,-1.5722 -0.61945,-2.23973 -0.61267,-6.35165 0.007,-4.25444 0.083,-4.95518 1.02519,-9.45989 1.72514,-8.24767 3.10535,-12.78164 4.78339,-15.71346 0.94117,-1.64439 1.67843,-2.26032 2.70551,-2.26032 2.34593,0 19.26333,21.65219 22.76979,29.14252 2.9594,6.32173 -1.16096,11.33789 -10.56994,12.86798 -2.51217,0.40853 -6.15804,0.645 -7.49104,0.48587 z M 33.927091,149.10242 c -4.947002,-1.23166 -14.029246,-7.64128 -15.538246,-10.96582 -0.306796,-0.67591 -0.540235,-1.77651 -0.543623,-2.56302 -0.01012,-2.35033 1.463859,-3.9142 6.867424,-7.28629 4.583573,-2.86036 6.491391,-4.50099 14.622112,-12.57439 4.163903,-4.13453 7.913252,-7.64542 8.331893,-7.80195 1.407717,-0.52637 2.591909,-0.35291 3.450578,0.50545 1.004722,1.00434 1.024057,1.98112 0.126125,6.36957 -0.365326,1.78543 -1.224241,6.1653 -1.908703,9.73304 -2.424702,12.63857 -4.279275,18.26767 -7.267877,22.0598 -1.995761,2.53236 -4.71648,3.37588 -8.139683,2.52361 z m 105.075039,0.0357 c -3.51103,-0.88713 -9.89109,-4.83814 -13.4939,-8.35645 -1.56482,-1.52811 -2.76022,-3.71775 -2.76022,-5.05597 0,-2.09097 1.87454,-4.24212 5.81324,-6.67101 5.89005,-3.63224 10.30985,-7.44422 18.79165,-16.20735 2.30502,-2.38147 4.58033,-4.53045 5.05625,-4.7755 1.96706,-1.01283 4.21786,-0.24254 4.55599,1.55919 0.17358,0.92485 -1.13305,8.11858 -3.56327,19.61788 -2.98854,14.14118 -6.20959,19.8186 -11.43707,20.15898 -0.82867,0.0539 -2.16187,-0.0674 -2.96267,-0.26977 z M 6.5927483,102.09915 C 4.005077,101.4304 2.3313939,100.7016 0.87273016,99.608379 L -0.00601582,98.949782 V 83.321116 67.692441 L 0.94394785,65.336942 C 1.9648246,62.80559 3.221942,60.765093 3.9272618,60.494528 c 1.3035402,-0.500024 1.9337827,-0.19015 3.9192611,1.927034 4.2009001,4.479552 11.8486601,14.232397 15.8965391,20.272145 1.214246,1.811753 2.207721,3.343748 2.207721,3.404447 0,0.06068 0.409162,0.78959 0.90925,1.619766 0.500088,0.830165 1.175857,2.338235 1.501709,3.351257 0.508562,1.581038 0.551204,2.025888 0.301127,3.14136 -0.996111,4.443192 -4.708921,6.956953 -12.04031,8.151913 -3.606386,0.58781 -7.0904561,0.49634 -10.0298107,-0.2633 z M 208.79206,97.409084 c -2.63023,-3.85786 -3.08635,-9.109887 -1.5283,-17.597666 0.66255,-3.609388 2.43517,-11.0834 2.68879,-11.336937 0.0711,-0.07109 0.12928,6.702177 0.12928,15.051659 0,8.349482 -0.0913,15.180638 -0.20279,15.180351 -0.11154,-2.86e-4 -0.60068,-0.584117 -1.08698,-1.297407 z m -16.35904,-0.643888 c -2.14851,-0.27882 -5.31978,-1.71152 -8.48499,-3.833322 -7.98778,-5.35461 -10.18297,-8.920308 -7.6483,-12.423305 1.07111,-1.480304 2.35151,-2.484683 6.34817,-4.979694 4.5898,-2.86528 6.41066,-4.440147 14.93787,-12.91987 5.76148,-5.729394 7.31278,-7.128858 8.19517,-7.393129 2.05151,-0.614419 3.76012,0.609019 3.76012,2.692406 0,0.482096 -0.30001,2.348553 -0.66668,4.147681 -0.36668,1.799128 -1.16466,5.886123 -1.77329,9.082217 -1.95626,10.272716 -3.84886,16.924612 -5.81569,20.440337 -1.15944,2.072471 -2.83475,4.004164 -3.9912,4.60197 -1.13148,0.584893 -3.06638,0.81762 -4.86118,0.584709 z M 59.478312,49.684572 c -5.994763,-1.406886 -9.233037,-4.43533 -10.297297,-9.63007 -0.544878,-2.659571 -0.356528,-8.095255 0.42608,-12.29669 2.310012,-12.401214 4.943053,-19.3652498 7.571118,-20.0246074 0.628635,-0.1577177 0.943805,0.03082 2.352554,1.407341 2.171287,2.1216154 7.918439,9.0143594 11.691893,14.0224604 4.233196,5.618277 7.248834,10.205829 8.749015,13.309502 1.06242,2.197996 1.26941,2.878429 1.253795,4.121458 -0.06356,5.061907 -4.68605,8.311193 -13.452428,9.456198 -3.132648,0.409165 -5.423755,0.308183 -8.29473,-0.365592 z m 104.805808,-0.05444 c -7.71195,-1.908339 -10.73223,-6.399273 -10.34727,-15.385542 0.30503,-7.120084 3.57887,-20.646644 5.8555,-24.193134 1.0161,-1.5828574 1.5444,-2.0645895 2.53539,-2.3118821 0.71775,-0.1791129 0.95133,-0.014363 2.9399,2.0736325 6.45845,6.7813476 16.71021,20.5392756 19.72278,26.4680986 1.06295,2.091932 1.16249,2.461364 1.16249,4.314928 0,2.426221 -0.4325,3.441001 -2.23405,5.241885 -2.07048,2.069706 -5.37268,3.393004 -10.20359,4.088899 -3.83891,0.552998 -6.31112,0.475175 -9.43115,-0.296885 z M 33.386325,43.964824 c -3.295317,-0.894658 -9.419522,-4.75191 -12.893879,-8.121045 -2.604443,-2.525566 -3.333242,-5.266755 -1.999779,-7.521655 0.849883,-1.437164 2.313017,-2.627345 6.114112,-4.973507 4.612401,-2.846926 6.945651,-4.849838 15.073137,-12.9391 7.739471,-7.7030695 8.331889,-8.1561177 10.205704,-7.8047189 1.937225,0.3632915 2.462411,2.25793 1.629504,5.8786015 -0.21585,0.9383211 -1.013368,4.9899734 -1.772256,9.0036714 -2.111841,11.169396 -3.480582,16.268522 -5.513909,20.541482 -1.325467,2.785424 -3.155171,4.969541 -4.850344,5.789855 -1.363934,0.660023 -3.874552,0.721369 -5.99229,0.146416 z m 104.755725,-0.09509 c -3.33019,-1.065235 -8.26353,-4.137446 -12.19357,-7.593475 -1.67544,-1.47336 -3.20047,-4.095621 -3.20047,-5.503179 0,-2.102869 2.08594,-4.514428 5.90154,-6.822796 5.37709,-3.253044 7.09362,-4.688675 15.05317,-12.589808 4.31262,-4.2809614 8.09067,-7.9580731 8.3957,-8.1713586 0.85635,-0.5988128 2.45814,-0.8083595 3.35151,-0.4384483 0.79447,0.3289586 1.63677,1.6772954 1.63677,2.6201213 0,0.887006 -3.97476,20.6371486 -4.84055,24.0521356 -2.0578,8.11671 -4.73131,12.96994 -7.94928,14.430339 -1.45115,0.658569 -4.1251,0.665724 -6.15482,0.01647 z M 89.085291,34.000762 C 87.644627,33.544116 85.895169,32.633378 84.083201,31.396769 78.264586,27.425759 69.451343,18.303912 64.855713,11.496015 63.041506,8.8084714 62.674882,7.8820778 62.890947,6.5313833 c 0.291012,-1.8192151 1.727608,-2.3345262 4.138126,-1.4843601 1.844732,0.6506163 7.427089,1.7501732 10.939176,2.1546901 3.734274,0.4301095 6.213833,0.3525184 12.780872,-0.3999414 2.55092,-0.2922883 5.787671,-0.5314331 7.192762,-0.5314331 2.874137,0 3.825837,0.4081372 4.994697,2.1419463 1.41551,2.0996959 1.42447,3.6268449 0.049,8.3494279 -2.67346,9.179125 -6.046385,15.201727 -9.468288,16.906299 -1.554332,0.774268 -2.754742,0.864393 -4.432011,0.33275 z M 193.31806,33.654884 c -5.84829,-2.361407 -15.85807,-11.617621 -22.3995,-20.713198 -2.90047,-4.0329719 -3.59358,-5.9978085 -2.61062,-7.4006538 0.69792,-0.9960391 1.69632,-0.9896473 5.86446,0.037541 7.87215,1.94 13.14409,2.2348984 21.72903,1.215463 6.18742,-0.7347361 9.66241,-0.657718 10.80215,0.2394145 1.08942,0.8575262 1.6895,1.8163362 2.18493,3.4910983 0.4025,1.360672 0.39116,1.523794 -0.28914,4.157232 -2.60291,10.075685 -6.47478,17.31638 -10.23196,19.134524 -1.53852,0.744509 -2.91466,0.700517 -5.04935,-0.161421 z M 10.363884,25.175387 C 7.1435198,23.581909 4.035471,18.591027 1.3390839,10.683433 0.01112282,6.7889689 -0.00601582,6.696117 -0.00601582,3.3962716 V 0.05383699 H 21.624651 43.255316 V 1.1041689 c 0,3.9443928 -15.235189,18.1612041 -24.396409,22.7656601 -3.939664,1.980087 -6.375325,2.354412 -8.495023,1.305558 z M 80.162641,4.739943 C 72.442026,4.2742399 66.41264,2.7554896 63.804452,0.61944879 l -0.67596,-0.55359133 18.386069,0.0050055 18.386059,0.0050056 -0.94634,0.81289316 C 95.539469,3.8219691 88.58227,5.2478102 80.162641,4.739943 Z M 183.65258,4.622713 c -7.08865,-0.5105161 -13.35152,-2.2508855 -14.92646,-4.14787353 -0.31588,-0.38046059 1.41769,-0.42006573 18.00204,-0.4112815 l 18.35158,0.0097047 -0.81115,0.6787025 c -1.19602,1.00072593 -4.87795,2.70123283 -6.92611,3.19883343 -3.6371,0.8836359 -7.86715,1.0912456 -13.6899,0.6718991 z"
       id="path1" /></g></svg>
