<?xml version="1.0" encoding="UTF-8" standalone="no"?>
<!-- Created with Inkscape (http://www.inkscape.org/) -->

<svg
   width="50"
   height="50"
   viewBox="0 0 13.229167 13.229167"
   version="1.1"
   id="svg1"
   xml:space="preserve"
   inkscape:export-filename="dollar.svg"
   inkscape:export-xdpi="96"
   inkscape:export-ydpi="96"
   xmlns:inkscape="http://www.inkscape.org/namespaces/inkscape"
   xmlns:sodipodi="http://sodipodi.sourceforge.net/DTD/sodipodi-0.dtd"
   xmlns="http://www.w3.org/2000/svg"
   xmlns:svg="http://www.w3.org/2000/svg"><sodipodi:namedview
     id="namedview1"
     pagecolor="#ffffff"
     bordercolor="#000000"
     borderopacity="0.25"
     inkscape:showpageshadow="2"
     inkscape:pageopacity="0.0"
     inkscape:pagecheckerboard="0"
     inkscape:deskcolor="#d1d1d1"
     inkscape:document-units="mm" /><defs
     id="defs1" /><g
     inkscape:label="Layer 1"
     inkscape:groupmode="layer"
     id="layer1"><path
       style="fill:#aa8800;stroke-width:0.163759"
       d="M 5.7134948,12.472986 V 11.839233 L 5.3730264,11.792051 C 3.2953499,11.504134 2.1367774,10.562784 1.7206226,8.8244408 1.6673396,8.6018736 1.6299567,8.414606 1.6375497,8.4082915 c 0.011821,-0.00982 1.767099,-0.1629303 2.1721379,-0.1894659 0.135492,-0.00887 0.1417148,-0.001 0.2463151,0.3106978 0.2292974,0.683343 0.6158415,1.1295189 1.1902343,1.3738514 0.5097029,0.2168132 0.4672578,0.3326482 0.4672578,-1.2751666 0,-1.0858694 -0.013184,-1.4036871 -0.058702,-1.4150306 C 4.0552048,6.8145587 3.3174559,6.4789702 2.7679106,5.899988 2.2925025,5.3991143 2.0847402,4.9003287 2.0815186,4.2521324 2.07501,2.9428485 3.0721848,1.9250946 4.7074818,1.5719736 4.9445487,1.520782 5.2678836,1.4664386 5.4260038,1.4512105 l 0.287491,-0.027687 V 0.78907653 0.15462976 h 0.751379 0.7513787 V 0.78964111 1.4246525 l 0.3829824,0.047669 C 9.232921,1.6756652 10.342527,2.3960417 10.763839,3.5268402 10.900273,3.8930276 10.98306,4.4327663 10.906005,4.4537027 10.793104,4.4843788 8.6013189,4.547446 8.5737598,4.5208113 8.5573572,4.5049573 8.5183372,4.4020415 8.4870515,4.2921084 8.3557214,3.8306372 8.0301669,3.4557247 7.6154225,3.2883293 7.1871848,3.115488 7.2162525,3.0410488 7.2162525,4.3105551 v 1.1177772 l 0.1995849,0.042933 c 0.6048598,0.1301116 1.5901505,0.425737 1.9974836,0.5993218 0.92435,0.3939123 1.524135,1.0103891 1.77426,1.8236392 0.117397,0.3817016 0.118918,1.2152207 0.0029,1.5724149 C 10.755263,10.806094 9.551232,11.604333 7.67411,11.797869 l -0.4578725,0.04721 v 0.630831 0.63083 H 6.4648738 5.7134948 Z m 1.878183,-2.446165 C 7.9096045,9.9567347 8.1457553,9.8410875 8.4172476,9.6225148 8.9749551,9.1735187 9.0530639,8.4936107 8.5932398,8.0905742 8.4008573,7.9219494 7.906109,7.7105246 7.4862792,7.6175274 L 7.2162525,7.5577141 v 1.2781197 c 0,1.1983402 0.00513,1.2768522 0.082182,1.2578172 0.0452,-0.01117 0.1771596,-0.04124 0.2932433,-0.06683 z M 5.7134948,4.1071085 V 3.1425841 l -0.1995849,0.026972 c -0.6406586,0.08658 -1.1582451,0.4898736 -1.1612577,0.9048309 -0.00132,0.1811591 0.1958002,0.5094928 0.3799509,0.6328811 0.1465197,0.098175 0.8177008,0.3630081 0.9221902,0.3638768 0.045355,3.778e-4 0.058702,-0.2188069 0.058702,-0.9640364 z"
       id="path1" /></g></svg>
