<?xml version="1.0" encoding="UTF-8" standalone="no"?>
<!-- Uploaded to: SVG Repo, www.svgrepo.com, Generator: SVG Repo Mixer Tools -->

<svg
   width="50"
   height="50"
   viewBox="0 0 1.5 1.5"
   fill="none"
   version="1.1"
   id="svg1"
   sodipodi:docname="tick.svg"
   xml:space="preserve"
   inkscape:export-filename="tick-yellow.svg"
   inkscape:export-xdpi="96"
   inkscape:export-ydpi="96"
   xmlns:inkscape="http://www.inkscape.org/namespaces/inkscape"
   xmlns:sodipodi="http://sodipodi.sourceforge.net/DTD/sodipodi-0.dtd"
   xmlns="http://www.w3.org/2000/svg"
   xmlns:svg="http://www.w3.org/2000/svg"><defs
     id="defs1" /><sodipodi:namedview
     id="namedview1"
     pagecolor="#ffffff"
     bordercolor="#000000"
     borderopacity="0.25"
     inkscape:showpageshadow="2"
     inkscape:pageopacity="0.0"
     inkscape:pagecheckerboard="0"
     inkscape:deskcolor="#d1d1d1" /><path
     style="fill:#008000;stroke-width:0.0594516"
     d="M 0.69768744,1.4075659 C 0.40805698,1.3787292 0.17361539,1.1669767 0.11731692,0.88336238 c -0.00912,-0.0459489 -0.0108756,-0.0663817 -0.0108756,-0.12663184 0,-0.0602502 0.001732,-0.0806835 0.0108756,-0.12663184 0.0252318,-0.12711678 0.0875119,-0.24371678 0.1790873,-0.33529211 0.0844333,-0.0844333 0.19090956,-0.14437539 0.30704314,-0.17285309 0.0477823,-0.0117166 0.0837979,-0.0162439 0.13889545,-0.0174623 0.080413,-0.001792 0.14443033,0.007143 0.21503123,0.0299677 0.25149956,0.0812975 0.42816636,0.30227268 0.45187126,0.56519913 0.00233,0.0261635 0.00239,0.0855519 3.6e-6,0.11325566 C 1.390192,1.0369239 1.254936,1.2374247 1.0543415,1.3390297 c -0.0684349,0.034664 -0.13431961,0.055017 -0.21397055,0.066101 -0.024551,0.00342 -0.11698939,0.00499 -0.14268351,0.00244 z M 0.80852441,1.2899699 C 1.0368309,1.267411 1.2236842,1.1060607 1.2783667,0.88425402 c 0.011683,-0.0473942 0.013992,-0.0684182 0.013992,-0.12752347 0,-0.0454114 -5.351e-4,-0.0560297 -0.00394,-0.077584 C 1.2733852,0.58333112 1.2361017,0.49744113 1.1773191,0.42320742 1.1582921,0.39918187 1.1158566,0.35674397 1.0918287,0.33771699 1.0088238,0.2719887 0.91199009,0.23325513 0.80585133,0.2233261 0.77388301,0.2203396 0.71096275,0.22207177 0.67982206,0.22685017 0.53873488,0.2484152 0.41543843,0.32215566 0.32898233,0.436675 0.27117292,0.51324678 0.23484085,0.60759791 0.2250658,0.70652484 c -0.002329,0.0237329 -0.002329,0.0766566 0,0.10039246 0.0225624,0.228328 0.18384762,0.4151092 0.40571567,0.4698468 0.0219652,0.00542 0.0609788,0.011984 0.0820434,0.013805 0.0168829,0.00146 0.0787277,0.00106 0.0956769,-6.092e-4 z M 0.64863963,1.0753688 C 0.63015022,1.0692464 0.62627434,1.0657546 0.52177846,0.96121811 0.42531265,0.86471288 0.41768573,0.85663572 0.41209047,0.84505587 c -0.005673,-0.0117107 -0.006014,-0.0135506 -0.006014,-0.0312099 0,-0.0173249 4.2819e-4,-0.01966 0.005554,-0.0303618 0.008134,-0.0169904 0.0180834,-0.0272385 0.034172,-0.0351873 0.0132997,-0.006569 0.014094,-0.006724 0.0333241,-0.006683 0.0323864,7.823e-5 0.0281462,-0.002987 0.11556864,0.0842781 L 0.6691589,0.9002466 0.86133573,0.70839405 C 1.0442093,0.52582804 1.0540733,0.51629546 1.0651055,0.51146228 c 0.039583,-0.0173428 0.08631,0.002628 0.099861,0.04273 0.00719,0.0212725 0.00364,0.0479913 -0.00866,0.0656149 -0.00293,0.00418 -0.104303,0.10640033 -0.22527925,0.22714376 C 0.7214864,1.0560884 0.71052173,1.0667254 0.69947763,1.0715772 c -0.009394,0.00413 -0.0146375,0.0052 -0.0276446,0.00562 -0.00995,3.27e-4 -0.0187642,-3.709e-4 -0.0231835,-0.00183 z"
     id="path2" /></svg>
